<mxfile host="app.diagrams.net" modified="2023-02-20T04:17:51.150Z" agent="5.0 (Windows NT 10.0; Win64; x64) AppleWebKit/537.36 (KHTML, like Gecko) Chrome/110.0.0.0 Safari/537.36" etag="X0Is6dESgb3APYZUvWGv" version="20.8.20" type="github">
  <diagram id="R2lEEEUBdFMjLlhIrx00" name="Page-1">
    <mxGraphModel dx="1100" dy="555" grid="1" gridSize="10" guides="1" tooltips="1" connect="1" arrows="1" fold="1" page="1" pageScale="1" pageWidth="850" pageHeight="1100" math="0" shadow="0" extFonts="Permanent Marker^https://fonts.googleapis.com/css?family=Permanent+Marker">
      <root>
        <mxCell id="0" />
        <mxCell id="1" parent="0" />
        <mxCell id="JPVX1t0Qv_uBQKKG0mNZ-1" value="Jurusan" style="whiteSpace=wrap;html=1;align=center;" vertex="1" parent="1">
          <mxGeometry x="160" y="340" width="100" height="40" as="geometry" />
        </mxCell>
        <mxCell id="JPVX1t0Qv_uBQKKG0mNZ-2" value="Mahasiswa" style="whiteSpace=wrap;html=1;align=center;" vertex="1" parent="1">
          <mxGeometry x="160" y="560" width="100" height="40" as="geometry" />
        </mxCell>
        <mxCell id="JPVX1t0Qv_uBQKKG0mNZ-3" value="Nama_Jurusan" style="ellipse;whiteSpace=wrap;html=1;align=center;" vertex="1" parent="1">
          <mxGeometry x="10" y="340" width="100" height="40" as="geometry" />
        </mxCell>
        <mxCell id="JPVX1t0Qv_uBQKKG0mNZ-4" value="Kode_Jurusan" style="ellipse;whiteSpace=wrap;html=1;align=center;fontStyle=4;" vertex="1" parent="1">
          <mxGeometry x="310" y="340" width="100" height="40" as="geometry" />
        </mxCell>
        <mxCell id="JPVX1t0Qv_uBQKKG0mNZ-5" value="NIM" style="ellipse;whiteSpace=wrap;html=1;align=center;fontStyle=4;" vertex="1" parent="1">
          <mxGeometry y="560" width="100" height="40" as="geometry" />
        </mxCell>
        <mxCell id="JPVX1t0Qv_uBQKKG0mNZ-6" value="Nama" style="ellipse;whiteSpace=wrap;html=1;align=center;" vertex="1" parent="1">
          <mxGeometry y="500" width="100" height="40" as="geometry" />
        </mxCell>
        <mxCell id="JPVX1t0Qv_uBQKKG0mNZ-7" value="MataKuliah" style="whiteSpace=wrap;html=1;align=center;" vertex="1" parent="1">
          <mxGeometry x="530" y="560" width="100" height="40" as="geometry" />
        </mxCell>
        <mxCell id="JPVX1t0Qv_uBQKKG0mNZ-8" value="Dosen" style="whiteSpace=wrap;html=1;align=center;" vertex="1" parent="1">
          <mxGeometry x="530" y="830" width="100" height="40" as="geometry" />
        </mxCell>
        <mxCell id="JPVX1t0Qv_uBQKKG0mNZ-9" value="mengambil" style="shape=rhombus;perimeter=rhombusPerimeter;whiteSpace=wrap;html=1;align=center;" vertex="1" parent="1">
          <mxGeometry x="150" y="440" width="120" height="60" as="geometry" />
        </mxCell>
        <mxCell id="JPVX1t0Qv_uBQKKG0mNZ-10" value="Kode_Matkul" style="ellipse;whiteSpace=wrap;html=1;align=center;fontStyle=4;" vertex="1" parent="1">
          <mxGeometry x="530" y="450" width="100" height="40" as="geometry" />
        </mxCell>
        <mxCell id="JPVX1t0Qv_uBQKKG0mNZ-11" value="Nodosen" style="ellipse;whiteSpace=wrap;html=1;align=center;fontStyle=4;" vertex="1" parent="1">
          <mxGeometry x="700" y="830" width="100" height="40" as="geometry" />
        </mxCell>
        <mxCell id="JPVX1t0Qv_uBQKKG0mNZ-12" value="mengampu" style="shape=rhombus;perimeter=rhombusPerimeter;whiteSpace=wrap;html=1;align=center;" vertex="1" parent="1">
          <mxGeometry x="340" y="550" width="120" height="60" as="geometry" />
        </mxCell>
        <mxCell id="JPVX1t0Qv_uBQKKG0mNZ-13" value="mengajar" style="shape=rhombus;perimeter=rhombusPerimeter;whiteSpace=wrap;html=1;align=center;" vertex="1" parent="1">
          <mxGeometry x="520" y="680" width="120" height="60" as="geometry" />
        </mxCell>
        <mxCell id="JPVX1t0Qv_uBQKKG0mNZ-16" value="M" style="endArrow=none;html=1;rounded=0;exitX=1;exitY=0.5;exitDx=0;exitDy=0;entryX=0;entryY=0.5;entryDx=0;entryDy=0;" edge="1" parent="1" source="JPVX1t0Qv_uBQKKG0mNZ-2" target="JPVX1t0Qv_uBQKKG0mNZ-12">
          <mxGeometry x="-0.75" y="10" relative="1" as="geometry">
            <mxPoint x="310" y="650" as="sourcePoint" />
            <mxPoint x="310" y="730" as="targetPoint" />
            <mxPoint as="offset" />
          </mxGeometry>
        </mxCell>
        <mxCell id="JPVX1t0Qv_uBQKKG0mNZ-17" value="N" style="endArrow=none;html=1;rounded=0;exitX=1;exitY=0.5;exitDx=0;exitDy=0;entryX=0;entryY=0.5;entryDx=0;entryDy=0;" edge="1" parent="1" source="JPVX1t0Qv_uBQKKG0mNZ-12" target="JPVX1t0Qv_uBQKKG0mNZ-7">
          <mxGeometry x="0.7143" y="10" relative="1" as="geometry">
            <mxPoint x="460" y="660" as="sourcePoint" />
            <mxPoint x="460" y="740" as="targetPoint" />
            <mxPoint as="offset" />
          </mxGeometry>
        </mxCell>
        <mxCell id="JPVX1t0Qv_uBQKKG0mNZ-20" value="1" style="endArrow=none;html=1;rounded=0;exitX=0.5;exitY=1;exitDx=0;exitDy=0;entryX=0.5;entryY=0;entryDx=0;entryDy=0;" edge="1" parent="1" source="JPVX1t0Qv_uBQKKG0mNZ-13" target="JPVX1t0Qv_uBQKKG0mNZ-8">
          <mxGeometry x="0.7778" y="10" relative="1" as="geometry">
            <mxPoint x="250" y="640" as="sourcePoint" />
            <mxPoint x="250" y="720" as="targetPoint" />
            <mxPoint as="offset" />
          </mxGeometry>
        </mxCell>
        <mxCell id="JPVX1t0Qv_uBQKKG0mNZ-23" value="" style="endArrow=none;html=1;rounded=0;exitX=0;exitY=0.5;exitDx=0;exitDy=0;entryX=1;entryY=0.5;entryDx=0;entryDy=0;" edge="1" parent="1" source="JPVX1t0Qv_uBQKKG0mNZ-11" target="JPVX1t0Qv_uBQKKG0mNZ-8">
          <mxGeometry relative="1" as="geometry">
            <mxPoint x="280" y="670" as="sourcePoint" />
            <mxPoint x="280" y="750" as="targetPoint" />
          </mxGeometry>
        </mxCell>
        <mxCell id="JPVX1t0Qv_uBQKKG0mNZ-24" value="N" style="endArrow=none;html=1;rounded=0;exitX=0.5;exitY=1;exitDx=0;exitDy=0;entryX=0.5;entryY=0;entryDx=0;entryDy=0;" edge="1" parent="1" source="JPVX1t0Qv_uBQKKG0mNZ-7" target="JPVX1t0Qv_uBQKKG0mNZ-13">
          <mxGeometry x="-0.75" y="10" relative="1" as="geometry">
            <mxPoint x="290" y="680" as="sourcePoint" />
            <mxPoint x="290" y="760" as="targetPoint" />
            <mxPoint as="offset" />
          </mxGeometry>
        </mxCell>
        <mxCell id="JPVX1t0Qv_uBQKKG0mNZ-25" value="" style="endArrow=none;html=1;rounded=0;exitX=0.5;exitY=1;exitDx=0;exitDy=0;entryX=0.5;entryY=0;entryDx=0;entryDy=0;" edge="1" parent="1" source="JPVX1t0Qv_uBQKKG0mNZ-10" target="JPVX1t0Qv_uBQKKG0mNZ-7">
          <mxGeometry relative="1" as="geometry">
            <mxPoint x="300" y="690" as="sourcePoint" />
            <mxPoint x="300" y="770" as="targetPoint" />
          </mxGeometry>
        </mxCell>
        <mxCell id="JPVX1t0Qv_uBQKKG0mNZ-27" value="Nama_matkul" style="ellipse;whiteSpace=wrap;html=1;align=center;" vertex="1" parent="1">
          <mxGeometry x="700" y="590" width="100" height="40" as="geometry" />
        </mxCell>
        <mxCell id="JPVX1t0Qv_uBQKKG0mNZ-28" value="Nama_dosen" style="ellipse;whiteSpace=wrap;html=1;align=center;" vertex="1" parent="1">
          <mxGeometry x="530" y="920" width="100" height="40" as="geometry" />
        </mxCell>
        <mxCell id="JPVX1t0Qv_uBQKKG0mNZ-29" value="" style="endArrow=none;html=1;rounded=0;exitX=0.5;exitY=0;exitDx=0;exitDy=0;entryX=0.5;entryY=1;entryDx=0;entryDy=0;" edge="1" parent="1" source="JPVX1t0Qv_uBQKKG0mNZ-28" target="JPVX1t0Qv_uBQKKG0mNZ-8">
          <mxGeometry relative="1" as="geometry">
            <mxPoint x="210" y="740" as="sourcePoint" />
            <mxPoint x="210" y="820" as="targetPoint" />
          </mxGeometry>
        </mxCell>
        <mxCell id="JPVX1t0Qv_uBQKKG0mNZ-32" value="dibimbing" style="shape=rhombus;perimeter=rhombusPerimeter;whiteSpace=wrap;html=1;align=center;" vertex="1" parent="1">
          <mxGeometry x="150" y="820" width="120" height="60" as="geometry" />
        </mxCell>
        <mxCell id="JPVX1t0Qv_uBQKKG0mNZ-33" value="N" style="endArrow=none;html=1;rounded=0;exitX=0.5;exitY=1;exitDx=0;exitDy=0;entryX=0.5;entryY=0;entryDx=0;entryDy=0;verticalAlign=middle;" edge="1" parent="1" source="JPVX1t0Qv_uBQKKG0mNZ-2" target="JPVX1t0Qv_uBQKKG0mNZ-32">
          <mxGeometry x="-0.9091" y="10" relative="1" as="geometry">
            <mxPoint x="330" y="730" as="sourcePoint" />
            <mxPoint x="490" y="730" as="targetPoint" />
            <mxPoint as="offset" />
          </mxGeometry>
        </mxCell>
        <mxCell id="JPVX1t0Qv_uBQKKG0mNZ-34" value="1" style="endArrow=none;html=1;rounded=0;exitX=1;exitY=0.5;exitDx=0;exitDy=0;entryX=0;entryY=0.5;entryDx=0;entryDy=0;" edge="1" parent="1" source="JPVX1t0Qv_uBQKKG0mNZ-32" target="JPVX1t0Qv_uBQKKG0mNZ-8">
          <mxGeometry x="0.9231" y="10" relative="1" as="geometry">
            <mxPoint x="330" y="860" as="sourcePoint" />
            <mxPoint x="490" y="860" as="targetPoint" />
            <mxPoint as="offset" />
          </mxGeometry>
        </mxCell>
        <mxCell id="JPVX1t0Qv_uBQKKG0mNZ-35" value="" style="endArrow=none;html=1;rounded=0;exitX=1;exitY=0.5;exitDx=0;exitDy=0;entryX=1;entryY=0.5;entryDx=0;entryDy=0;" edge="1" parent="1" source="JPVX1t0Qv_uBQKKG0mNZ-6" target="JPVX1t0Qv_uBQKKG0mNZ-5">
          <mxGeometry relative="1" as="geometry">
            <mxPoint x="330" y="730" as="sourcePoint" />
            <mxPoint x="490" y="730" as="targetPoint" />
            <Array as="points">
              <mxPoint x="160" y="580" />
            </Array>
          </mxGeometry>
        </mxCell>
        <mxCell id="JPVX1t0Qv_uBQKKG0mNZ-36" value="1" style="endArrow=none;html=1;rounded=0;exitX=0.5;exitY=0;exitDx=0;exitDy=0;entryX=0.5;entryY=1;entryDx=0;entryDy=0;" edge="1" parent="1" source="JPVX1t0Qv_uBQKKG0mNZ-2" target="JPVX1t0Qv_uBQKKG0mNZ-9">
          <mxGeometry x="-0.6667" y="-10" relative="1" as="geometry">
            <mxPoint x="330" y="610" as="sourcePoint" />
            <mxPoint x="490" y="610" as="targetPoint" />
            <mxPoint as="offset" />
          </mxGeometry>
        </mxCell>
        <mxCell id="JPVX1t0Qv_uBQKKG0mNZ-37" value="N" style="endArrow=none;html=1;rounded=0;exitX=0.5;exitY=1;exitDx=0;exitDy=0;entryX=0.5;entryY=0;entryDx=0;entryDy=0;" edge="1" parent="1" source="JPVX1t0Qv_uBQKKG0mNZ-1" target="JPVX1t0Qv_uBQKKG0mNZ-9">
          <mxGeometry x="-0.6667" y="10" relative="1" as="geometry">
            <mxPoint x="330" y="610" as="sourcePoint" />
            <mxPoint x="490" y="610" as="targetPoint" />
            <mxPoint as="offset" />
          </mxGeometry>
        </mxCell>
        <mxCell id="JPVX1t0Qv_uBQKKG0mNZ-38" value="" style="endArrow=none;html=1;rounded=0;exitX=1;exitY=0.5;exitDx=0;exitDy=0;entryX=0;entryY=0.5;entryDx=0;entryDy=0;" edge="1" parent="1" source="JPVX1t0Qv_uBQKKG0mNZ-3" target="JPVX1t0Qv_uBQKKG0mNZ-1">
          <mxGeometry relative="1" as="geometry">
            <mxPoint x="330" y="610" as="sourcePoint" />
            <mxPoint x="490" y="610" as="targetPoint" />
          </mxGeometry>
        </mxCell>
        <mxCell id="JPVX1t0Qv_uBQKKG0mNZ-39" value="" style="endArrow=none;html=1;rounded=0;exitX=1;exitY=0.5;exitDx=0;exitDy=0;entryX=0;entryY=0.5;entryDx=0;entryDy=0;" edge="1" parent="1" source="JPVX1t0Qv_uBQKKG0mNZ-1" target="JPVX1t0Qv_uBQKKG0mNZ-4">
          <mxGeometry relative="1" as="geometry">
            <mxPoint x="330" y="610" as="sourcePoint" />
            <mxPoint x="490" y="610" as="targetPoint" />
          </mxGeometry>
        </mxCell>
        <mxCell id="JPVX1t0Qv_uBQKKG0mNZ-41" value="kelas" style="ellipse;whiteSpace=wrap;html=1;align=center;" vertex="1" parent="1">
          <mxGeometry y="620" width="100" height="40" as="geometry" />
        </mxCell>
        <mxCell id="JPVX1t0Qv_uBQKKG0mNZ-42" value="" style="endArrow=none;html=1;rounded=0;exitX=1;exitY=0.5;exitDx=0;exitDy=0;entryX=0;entryY=0.5;entryDx=0;entryDy=0;" edge="1" parent="1" source="JPVX1t0Qv_uBQKKG0mNZ-41" target="JPVX1t0Qv_uBQKKG0mNZ-2">
          <mxGeometry relative="1" as="geometry">
            <mxPoint x="330" y="610" as="sourcePoint" />
            <mxPoint x="490" y="610" as="targetPoint" />
          </mxGeometry>
        </mxCell>
        <mxCell id="JPVX1t0Qv_uBQKKG0mNZ-43" value="SKS" style="ellipse;whiteSpace=wrap;html=1;align=center;" vertex="1" parent="1">
          <mxGeometry x="700" y="520" width="100" height="40" as="geometry" />
        </mxCell>
        <mxCell id="JPVX1t0Qv_uBQKKG0mNZ-45" value="" style="endArrow=none;html=1;rounded=0;entryX=0;entryY=0.5;entryDx=0;entryDy=0;exitX=0;exitY=0.5;exitDx=0;exitDy=0;" edge="1" parent="1" source="JPVX1t0Qv_uBQKKG0mNZ-27" target="JPVX1t0Qv_uBQKKG0mNZ-43">
          <mxGeometry relative="1" as="geometry">
            <mxPoint x="330" y="610" as="sourcePoint" />
            <mxPoint x="490" y="610" as="targetPoint" />
            <Array as="points">
              <mxPoint x="630" y="580" />
            </Array>
          </mxGeometry>
        </mxCell>
        <mxCell id="JPVX1t0Qv_uBQKKG0mNZ-59" value="Mahasiswa" style="shape=table;startSize=30;container=1;collapsible=0;childLayout=tableLayout;strokeColor=default;fontSize=16;" vertex="1" parent="1">
          <mxGeometry x="50" y="1110" width="390" height="190" as="geometry" />
        </mxCell>
        <mxCell id="JPVX1t0Qv_uBQKKG0mNZ-60" value="" style="shape=tableRow;horizontal=0;startSize=0;swimlaneHead=0;swimlaneBody=0;strokeColor=inherit;top=0;left=0;bottom=0;right=0;collapsible=0;dropTarget=0;fillColor=none;points=[[0,0.5],[1,0.5]];portConstraint=eastwest;fontSize=16;" vertex="1" parent="JPVX1t0Qv_uBQKKG0mNZ-59">
          <mxGeometry y="30" width="390" height="54" as="geometry" />
        </mxCell>
        <mxCell id="JPVX1t0Qv_uBQKKG0mNZ-61" value="NIM" style="shape=partialRectangle;html=1;whiteSpace=wrap;connectable=0;strokeColor=inherit;overflow=hidden;fillColor=none;top=0;left=0;bottom=0;right=0;pointerEvents=1;fontSize=16;fontStyle=1" vertex="1" parent="JPVX1t0Qv_uBQKKG0mNZ-60">
          <mxGeometry width="99" height="54" as="geometry">
            <mxRectangle width="99" height="54" as="alternateBounds" />
          </mxGeometry>
        </mxCell>
        <mxCell id="JPVX1t0Qv_uBQKKG0mNZ-72" value="Nama" style="shape=partialRectangle;html=1;whiteSpace=wrap;connectable=0;strokeColor=inherit;overflow=hidden;fillColor=none;top=0;left=0;bottom=0;right=0;pointerEvents=1;fontSize=16;" vertex="1" parent="JPVX1t0Qv_uBQKKG0mNZ-60">
          <mxGeometry x="99" width="96" height="54" as="geometry">
            <mxRectangle width="96" height="54" as="alternateBounds" />
          </mxGeometry>
        </mxCell>
        <mxCell id="JPVX1t0Qv_uBQKKG0mNZ-62" value="Kelas" style="shape=partialRectangle;html=1;whiteSpace=wrap;connectable=0;strokeColor=inherit;overflow=hidden;fillColor=none;top=0;left=0;bottom=0;right=0;pointerEvents=1;fontSize=16;" vertex="1" parent="JPVX1t0Qv_uBQKKG0mNZ-60">
          <mxGeometry x="195" width="80" height="54" as="geometry">
            <mxRectangle width="80" height="54" as="alternateBounds" />
          </mxGeometry>
        </mxCell>
        <mxCell id="JPVX1t0Qv_uBQKKG0mNZ-63" value="Kode_Jurusan" style="shape=partialRectangle;html=1;whiteSpace=wrap;connectable=0;strokeColor=inherit;overflow=hidden;fillColor=none;top=0;left=0;bottom=0;right=0;pointerEvents=1;fontSize=16;" vertex="1" parent="JPVX1t0Qv_uBQKKG0mNZ-60">
          <mxGeometry x="275" width="115" height="54" as="geometry">
            <mxRectangle width="115" height="54" as="alternateBounds" />
          </mxGeometry>
        </mxCell>
        <mxCell id="JPVX1t0Qv_uBQKKG0mNZ-64" value="" style="shape=tableRow;horizontal=0;startSize=0;swimlaneHead=0;swimlaneBody=0;strokeColor=inherit;top=0;left=0;bottom=0;right=0;collapsible=0;dropTarget=0;fillColor=none;points=[[0,0.5],[1,0.5]];portConstraint=eastwest;fontSize=16;" vertex="1" parent="JPVX1t0Qv_uBQKKG0mNZ-59">
          <mxGeometry y="84" width="390" height="52" as="geometry" />
        </mxCell>
        <mxCell id="JPVX1t0Qv_uBQKKG0mNZ-65" value="" style="shape=partialRectangle;html=1;whiteSpace=wrap;connectable=0;strokeColor=inherit;overflow=hidden;fillColor=none;top=0;left=0;bottom=0;right=0;pointerEvents=1;fontSize=16;" vertex="1" parent="JPVX1t0Qv_uBQKKG0mNZ-64">
          <mxGeometry width="99" height="52" as="geometry">
            <mxRectangle width="99" height="52" as="alternateBounds" />
          </mxGeometry>
        </mxCell>
        <mxCell id="JPVX1t0Qv_uBQKKG0mNZ-73" style="shape=partialRectangle;html=1;whiteSpace=wrap;connectable=0;strokeColor=inherit;overflow=hidden;fillColor=none;top=0;left=0;bottom=0;right=0;pointerEvents=1;fontSize=16;" vertex="1" parent="JPVX1t0Qv_uBQKKG0mNZ-64">
          <mxGeometry x="99" width="96" height="52" as="geometry">
            <mxRectangle width="96" height="52" as="alternateBounds" />
          </mxGeometry>
        </mxCell>
        <mxCell id="JPVX1t0Qv_uBQKKG0mNZ-66" value="" style="shape=partialRectangle;html=1;whiteSpace=wrap;connectable=0;strokeColor=inherit;overflow=hidden;fillColor=none;top=0;left=0;bottom=0;right=0;pointerEvents=1;fontSize=16;" vertex="1" parent="JPVX1t0Qv_uBQKKG0mNZ-64">
          <mxGeometry x="195" width="80" height="52" as="geometry">
            <mxRectangle width="80" height="52" as="alternateBounds" />
          </mxGeometry>
        </mxCell>
        <mxCell id="JPVX1t0Qv_uBQKKG0mNZ-67" value="" style="shape=partialRectangle;html=1;whiteSpace=wrap;connectable=0;strokeColor=inherit;overflow=hidden;fillColor=none;top=0;left=0;bottom=0;right=0;pointerEvents=1;fontSize=16;" vertex="1" parent="JPVX1t0Qv_uBQKKG0mNZ-64">
          <mxGeometry x="275" width="115" height="52" as="geometry">
            <mxRectangle width="115" height="52" as="alternateBounds" />
          </mxGeometry>
        </mxCell>
        <mxCell id="JPVX1t0Qv_uBQKKG0mNZ-68" value="" style="shape=tableRow;horizontal=0;startSize=0;swimlaneHead=0;swimlaneBody=0;strokeColor=inherit;top=0;left=0;bottom=0;right=0;collapsible=0;dropTarget=0;fillColor=none;points=[[0,0.5],[1,0.5]];portConstraint=eastwest;fontSize=16;" vertex="1" parent="JPVX1t0Qv_uBQKKG0mNZ-59">
          <mxGeometry y="136" width="390" height="54" as="geometry" />
        </mxCell>
        <mxCell id="JPVX1t0Qv_uBQKKG0mNZ-69" value="" style="shape=partialRectangle;html=1;whiteSpace=wrap;connectable=0;strokeColor=inherit;overflow=hidden;fillColor=none;top=0;left=0;bottom=0;right=0;pointerEvents=1;fontSize=16;" vertex="1" parent="JPVX1t0Qv_uBQKKG0mNZ-68">
          <mxGeometry width="99" height="54" as="geometry">
            <mxRectangle width="99" height="54" as="alternateBounds" />
          </mxGeometry>
        </mxCell>
        <mxCell id="JPVX1t0Qv_uBQKKG0mNZ-74" style="shape=partialRectangle;html=1;whiteSpace=wrap;connectable=0;strokeColor=inherit;overflow=hidden;fillColor=none;top=0;left=0;bottom=0;right=0;pointerEvents=1;fontSize=16;" vertex="1" parent="JPVX1t0Qv_uBQKKG0mNZ-68">
          <mxGeometry x="99" width="96" height="54" as="geometry">
            <mxRectangle width="96" height="54" as="alternateBounds" />
          </mxGeometry>
        </mxCell>
        <mxCell id="JPVX1t0Qv_uBQKKG0mNZ-70" value="" style="shape=partialRectangle;html=1;whiteSpace=wrap;connectable=0;strokeColor=inherit;overflow=hidden;fillColor=none;top=0;left=0;bottom=0;right=0;pointerEvents=1;fontSize=16;" vertex="1" parent="JPVX1t0Qv_uBQKKG0mNZ-68">
          <mxGeometry x="195" width="80" height="54" as="geometry">
            <mxRectangle width="80" height="54" as="alternateBounds" />
          </mxGeometry>
        </mxCell>
        <mxCell id="JPVX1t0Qv_uBQKKG0mNZ-71" value="" style="shape=partialRectangle;html=1;whiteSpace=wrap;connectable=0;strokeColor=inherit;overflow=hidden;fillColor=none;top=0;left=0;bottom=0;right=0;pointerEvents=1;fontSize=16;" vertex="1" parent="JPVX1t0Qv_uBQKKG0mNZ-68">
          <mxGeometry x="275" width="115" height="54" as="geometry">
            <mxRectangle width="115" height="54" as="alternateBounds" />
          </mxGeometry>
        </mxCell>
      </root>
    </mxGraphModel>
  </diagram>
</mxfile>
